<svg xmlns="http://www.w3.org/2000/svg" viewBox="0 0 640 120" fill="none">
<defs>
  <linearGradient id="bg" x1="0" y1="0" x2="1" y2="1"><stop stop-color="#06101B"/><stop offset=".55" stop-color="#0B1E2C"/><stop offset="1" stop-color="#071017"/></linearGradient>
  <linearGradient id="edge" x1="0" y1="0" x2="1" y2="0"><stop stop-color="#61D4FF"/><stop offset=".55" stop-color="#1C7BB8"/><stop offset="1" stop-color="#0C2436" stop-opacity="0"/></linearGradient>
  <filter id="glow"><feGaussianBlur stdDeviation="5" result="b"/><feMerge><feMergeNode in="b"/><feMergeNode in="SourceGraphic"/></feMerge></filter>
  <pattern id="grid" width="18" height="18" patternUnits="userSpaceOnUse"><path d="M18 0H0V18" stroke="#7ADFFF" stroke-opacity=".05"/></pattern>
</defs>
<path d="M18 8H470L538 32H612L630 50V92L614 108H165L112 96H18L6 84V22L18 8Z" fill="url(#bg)" stroke="#2E759C" stroke-width="2"/>
<path d="M20 12H468L536 36H610" stroke="url(#edge)" stroke-width="4" filter="url(#glow)"/>
<path d="M10 25H145L166 44H466L500 56H622" stroke="#88E8FF" stroke-opacity=".18"/>
<path d="M10 79H106L132 58H244" stroke="#4AC8FF" stroke-opacity=".16"/>
<path d="M18 8H470L538 32H612L630 50V92L614 108H165L112 96H18L6 84V22L18 8Z" fill="url(#grid)"/>
<path d="M28 27V78" stroke="#63D6FF" stroke-width="5" filter="url(#glow)"/>
<circle cx="44" cy="60" r="4" fill="#A8EDFF" filter="url(#glow)"/>
<path d="M78 89H296" stroke="#3CC8FF" stroke-opacity=".45" stroke-width="2"/><path d="M78 94H214" stroke="#D9F6FF" stroke-opacity=".18"/>
</svg>